<svg width="50" height="58" viewBox="0 0 50 58" xmlns="http://www.w3.org/2000/svg"><title>Group</title><path d="M49.97 2.2c-.01-.087-.018-.175-.038-.26-.004-.014-.003-.03-.007-.046-.014-.055-.04-.103-.057-.156-.028-.09-.056-.181-.095-.266-.032-.073-.073-.14-.112-.208-.041-.07-.08-.141-.126-.208-.05-.07-.107-.134-.163-.198-.05-.055-.096-.111-.15-.162-.063-.061-.132-.113-.201-.167-.058-.044-.114-.089-.176-.129-.073-.048-.152-.086-.23-.125-.065-.032-.128-.066-.196-.093-.086-.035-.176-.058-.266-.084-.066-.017-.129-.037-.196-.05a2.842 2.842 0 0 0-.305-.031C47.599.012 47.552 0 47.5 0c-.015 0-.028.004-.043.005-.09.002-.18.015-.271.027-.082.01-.163.017-.243.035-.016.004-.033.003-.05.008l-30 7.5c-.057.014-.108.04-.164.058-.087.029-.175.055-.257.093-.074.032-.141.074-.21.114-.07.04-.142.08-.209.126-.067.049-.128.103-.19.157-.059.052-.119.101-.172.157-.055.06-.104.123-.154.188-.05.063-.1.124-.143.192-.042.067-.076.137-.112.207-.038.073-.076.145-.106.222-.03.077-.051.157-.074.236-.02.075-.044.15-.058.228-.017.089-.02.182-.027.274-.004.059-.017.115-.017.173v28.852a9.935 9.935 0 0 0-5-1.352c-5.514 0-10 4.486-10 10s4.486 10 10 10 10-4.486 10-10V24.453l25-6.25v15.65a9.935 9.935 0 0 0-5-1.353c-5.514 0-10 4.486-10 10s4.486 10 10 10 10-4.486 10-10v-40c0-.017-.005-.033-.005-.05-.002-.082-.014-.167-.025-.25zM10 52.5c-2.758 0-5-2.242-5-5s2.242-5 5-5 5 2.242 5 5-2.242 5-5 5zm10-33.203v-7.345l25-6.25v7.345l-25 6.25zM40 47.5c-2.758 0-5-2.242-5-5s2.242-5 5-5 5 2.242 5 5-2.242 5-5 5z" fill="#4359C4" fill-rule="evenodd"/></svg>